<svg width="22" height="23" viewBox="0 0 22 23" fill="none" xmlns="http://www.w3.org/2000/svg">
<rect x="0.5" y="1" width="21" height="21" rx="10.5" stroke="#B11413"/>
<path d="M13.1152 6.8457V9.38403H15.6537" stroke="#B11413" stroke-linecap="round" stroke-linejoin="round"/>
<path d="M16.4998 6L13.1152 9.38444" stroke="#B11413" stroke-linecap="round" stroke-linejoin="round"/>
<path d="M15.6534 14.4474V15.9759C15.654 16.1178 15.6248 16.2582 15.5679 16.3883C15.5109 16.5183 15.4274 16.635 15.3226 16.7309C15.2178 16.8268 15.0941 16.8999 14.9595 16.9453C14.8248 16.9908 14.682 17.0077 14.5404 16.9949C12.9695 16.8245 11.4604 16.2888 10.1346 15.4307C8.90109 14.6485 7.85528 13.6048 7.07146 12.3738C6.20866 11.0446 5.67172 9.5313 5.50414 7.95645C5.49139 7.81556 5.50816 7.67356 5.55341 7.53949C5.59866 7.40543 5.67138 7.28223 5.76694 7.17775C5.86251 7.07327 5.97883 6.98979 6.1085 6.93263C6.23817 6.87547 6.37834 6.84589 6.52009 6.84575H8.05167C8.29943 6.84332 8.53962 6.93088 8.72748 7.09211C8.91534 7.25334 9.03804 7.47724 9.07272 7.72208C9.13736 8.21123 9.25725 8.69151 9.43008 9.15376C9.49877 9.33613 9.51364 9.53431 9.47292 9.72485C9.4322 9.91538 9.33761 10.0903 9.20035 10.2288L8.55198 10.8759C9.27874 12.1514 10.337 13.2075 11.6151 13.9328L12.2635 13.2858C12.4023 13.1488 12.5776 13.0544 12.7685 13.0137C12.9594 12.9731 13.158 12.9879 13.3407 13.0565C13.8039 13.229 14.2851 13.3486 14.7753 13.4131C15.0233 13.4481 15.2498 13.5727 15.4117 13.7634C15.5736 13.9541 15.6596 14.1975 15.6534 14.4474Z" stroke="#B11413" stroke-linecap="round" stroke-linejoin="round"/>
</svg>
