<svg version="1.1" xmlns="http://www.w3.org/2000/svg" xmlns:xlink="http://www.w3.org/1999/xlink">


<svg id="arr-down"  viewBox="0 0 10 7" fill="none" xmlns="http://www.w3.org/2000/svg">
<path d="M0.833354 1.33333L5.00002 5.5L9.16669 1.33333" stroke="currentColor" stroke-width="1.3" stroke-linecap="round" stroke-linejoin="round"/>
</svg>

<svg id="search"  viewBox="0 0 18 18" fill="none" xmlns="http://www.w3.org/2000/svg">
<path d="M17.6336 16.9045L13.2182 12.4891C14.4773 11.041 15.125 9.16072 15.0248 7.24444C14.9246 5.32816 14.0843 3.52565 12.681 2.21686C11.2777 0.908065 9.4211 0.195248 7.5025 0.228663C5.58389 0.262078 3.75321 1.03912 2.39635 2.39598C1.03948 3.75284 0.262445 5.58353 0.229029 7.50213C0.195614 9.42074 0.908431 11.2774 2.21722 12.6807C3.52601 14.084 5.32853 14.9243 7.24481 15.0245C9.16109 15.1247 11.0414 14.4769 12.4894 13.2178L16.9049 17.6333C17.0026 17.7244 17.1319 17.7739 17.2655 17.7716C17.3991 17.7692 17.5265 17.7151 17.621 17.6206C17.7155 17.5262 17.7696 17.3987 17.772 17.2651C17.7743 17.1316 17.7247 17.0023 17.6336 16.9045ZM1.2849 7.6439C1.2849 6.38614 1.65787 5.15662 2.35664 4.11083C3.05542 3.06503 4.04862 2.24993 5.21064 1.76861C6.37267 1.28728 7.65133 1.16135 8.88492 1.40672C10.1185 1.6521 11.2517 2.25777 12.141 3.14715C13.0304 4.03652 13.6361 5.16965 13.8815 6.40325C14.1268 7.63685 14.0009 8.91551 13.5196 10.0775C13.0382 11.2396 12.2231 12.2328 11.1774 12.9315C10.1316 13.6303 8.90204 14.0033 7.64427 14.0033C5.95829 14.0012 4.34195 13.3306 3.14977 12.1384C1.9576 10.9462 1.28694 9.32989 1.2849 7.6439Z" fill="currentColor"/>
</svg>

<svg id="tg"  viewBox="0 0 22 22" fill="none" xmlns="http://www.w3.org/2000/svg">
<g clip-path="url(#clip0_2111_343)">
<path d="M11 0C8.08328 0 5.28344 1.15964 3.22266 3.2218C1.15975 5.28477 0.000571433 8.08256 0 11C0 13.9162 1.16016 16.716 3.22266 18.7782C5.28344 20.8404 8.08328 22 11 22C13.9167 22 16.7166 20.8404 18.7773 18.7782C20.8398 16.716 22 13.9162 22 11C22 8.0838 20.8398 5.28395 18.7773 3.2218C16.7166 1.15964 13.9167 0 11 0Z" fill="url(#paint0_linear_2111_343)"/>
<path d="M4.97927 10.884C8.18646 9.48703 10.3246 8.56596 11.3936 8.12097C14.4496 6.8503 15.0838 6.62961 15.498 6.62214C15.5891 6.62067 15.7919 6.64319 15.9243 6.75018C16.0343 6.84042 16.0652 6.96245 16.0807 7.04813C16.0944 7.13372 16.1133 7.3288 16.0979 7.48108C15.9329 9.22046 15.2161 13.4414 14.8518 15.3896C14.6988 16.2139 14.3946 16.4903 14.1007 16.5172C13.4613 16.576 12.9766 16.0951 12.3579 15.6897C11.3902 15.0549 10.8436 14.66 9.90349 14.0407C8.81724 13.325 9.52193 12.9316 10.1407 12.2888C10.3022 12.1205 13.1176 9.56042 13.1708 9.32822C13.1777 9.29917 13.1846 9.19089 13.1193 9.13383C13.0557 9.0766 12.9611 9.09619 12.8924 9.11166C12.7944 9.13366 11.2493 10.156 8.25177 12.1784C7.81349 12.4799 7.41646 12.6268 7.05896 12.6191C6.66708 12.6107 5.91083 12.397 5.3488 12.2145C4.6613 11.9906 4.11302 11.8721 4.16115 11.4918C4.18521 11.2938 4.45849 11.0911 4.97927 10.884Z" fill="white"/>
</g>
<defs>
<linearGradient id="paint0_linear_2111_343" x1="1100" y1="0" x2="1100" y2="2200" gradientUnits="userSpaceOnUse">
<stop stop-color="#2AABEE"/>
<stop offset="1" stop-color="#229ED9"/>
</linearGradient>
<clipPath id="clip0_2111_343">
<rect width="22" height="22" fill="white"/>
</clipPath>
</defs>
</svg>

<svg id="wa"  viewBox="0 0 22 22" fill="none" xmlns="http://www.w3.org/2000/svg">
<g clip-path="url(#clip0_2111_346)">
<path d="M0.469497 10.8686C0.468981 12.717 0.955731 14.5219 1.88128 16.1127L0.380981 21.5481L5.98686 20.0896C7.53737 20.9271 9.2746 21.366 11.04 21.3661H11.0446C16.8725 21.3661 21.6165 16.6606 21.619 10.8769C21.6201 8.07425 20.5211 5.43886 18.5245 3.45613C16.5281 1.47357 13.8731 0.381162 11.0442 0.379883C5.21565 0.379883 0.471989 5.08515 0.469583 10.8686" fill="url(#paint0_linear_2111_346)"/>
<path d="M0.0919531 10.8649C0.0913516 12.7799 0.595547 14.6493 1.55409 16.2971L0 21.9273L5.80688 20.4165C7.40687 21.2821 9.20829 21.7385 11.0413 21.7392H11.0461C17.083 21.7392 21.9974 16.8644 22 10.8736C22.001 7.97031 20.8625 5.24018 18.7945 3.18642C16.7263 1.13291 13.9763 0.0011938 11.0461 0C5.00809 0 0.0943594 4.87411 0.0919531 10.8649ZM3.55016 16.0133L3.33334 15.6718C2.42189 14.2337 1.94081 12.572 1.9415 10.8656C1.94339 5.88619 6.02748 1.83504 11.0495 1.83504C13.4815 1.83606 15.7671 2.77678 17.4862 4.48357C19.2052 6.19053 20.1511 8.4596 20.1505 10.8729C20.1483 15.8524 16.0641 19.904 11.0461 19.904H11.0425C9.40852 19.9032 7.80605 19.4678 6.40853 18.645L6.07595 18.4493L2.63003 19.3458L3.55016 16.0133Z" fill="url(#paint1_linear_2111_346)"/>
<path d="M8.30831 6.32225C8.10326 5.87005 7.88747 5.86093 7.69248 5.853C7.53281 5.84618 7.35027 5.84669 7.16791 5.84669C6.98538 5.84669 6.68881 5.91482 6.43813 6.18641C6.1872 6.45825 5.4801 7.11518 5.4801 8.4513C5.4801 9.7875 6.46091 11.0788 6.59763 11.2601C6.73453 11.4412 8.49109 14.2708 11.2731 15.3594C13.5851 16.264 14.0556 16.0841 14.5574 16.0387C15.0593 15.9935 16.1768 15.382 16.4048 14.7478C16.633 14.1137 16.633 13.5702 16.5646 13.4566C16.4962 13.3435 16.3136 13.2755 16.0399 13.1398C15.7661 13.0039 14.4205 12.3469 14.1697 12.2563C13.9187 12.1657 13.7363 12.1205 13.5538 12.3925C13.3712 12.664 12.8471 13.2755 12.6873 13.4566C12.5278 13.6382 12.368 13.6608 12.0944 13.5249C11.8205 13.3887 10.939 13.1023 9.89325 12.1771C9.07959 11.4573 8.53028 10.5683 8.37061 10.2964C8.21094 10.0249 8.35351 9.87772 8.49075 9.74239C8.61373 9.62071 8.76455 9.42527 8.90153 9.26675C9.038 9.10815 9.08355 8.99499 9.17481 8.81387C9.26617 8.63259 9.22045 8.47398 9.15213 8.33815C9.08355 8.20231 8.55168 6.8592 8.30831 6.32225Z" fill="white"/>
</g>
<defs>
<linearGradient id="paint0_linear_2111_346" x1="1062.28" y1="2117.2" x2="1062.28" y2="0.379883" gradientUnits="userSpaceOnUse">
<stop stop-color="#1FAF38"/>
<stop offset="1" stop-color="#60D669"/>
</linearGradient>
<linearGradient id="paint1_linear_2111_346" x1="1100" y1="2192.73" x2="1100" y2="0" gradientUnits="userSpaceOnUse">
<stop stop-color="#F4F4F4"/>
<stop offset="1" stop-color="#F7F7F7"/>
</linearGradient>
<clipPath id="clip0_2111_346">
<rect width="22" height="22" fill="white"/>
</clipPath>
</defs>
</svg>

<svg id="viber"  viewBox="0 0 22 22" fill="none" xmlns="http://www.w3.org/2000/svg">
<path fill-rule="evenodd" clip-rule="evenodd" d="M16.0824 1.54105C12.7351 0.819649 9.26389 0.819649 5.91657 1.54105L5.55589 1.61798C4.61433 1.82094 3.74956 2.27159 3.05764 2.91986C2.36572 3.56812 1.87375 4.38863 1.63637 5.29024C0.787878 8.51375 0.787878 11.8905 1.63637 15.114C1.86275 15.9739 2.32091 16.7608 2.9644 17.3949C3.6079 18.029 4.41385 18.4878 5.30055 18.7247L5.79528 21.5723C5.81107 21.6627 5.85172 21.7474 5.91298 21.8175C5.97425 21.8877 6.0539 21.9407 6.14364 21.971C6.23337 22.0014 6.32991 22.008 6.4232 21.9902C6.5165 21.9724 6.60313 21.9308 6.67409 21.8698L9.57968 19.3638C11.7608 19.4921 13.9499 19.324 16.0824 18.8643L16.4442 18.7873C17.3857 18.5844 18.2505 18.1337 18.9424 17.4854C19.6343 16.8372 20.1263 16.0167 20.3637 15.1151C21.2121 11.8915 21.2121 8.51478 20.3637 5.29127C20.1262 4.38953 19.6341 3.56893 18.942 2.92065C18.2499 2.27237 17.3849 1.8218 16.4431 1.61901L16.0824 1.54105ZM6.81453 5.20715C6.61679 5.1794 6.41516 5.21778 6.24319 5.31588H6.2283C5.82932 5.54155 5.46971 5.82569 5.1633 6.16009C4.90796 6.44423 4.76965 6.73145 4.73347 7.0084C4.71219 7.17253 4.72709 7.3387 4.77709 7.49564L4.79625 7.5059C5.08351 8.31934 5.45801 9.102 5.9155 9.8385C6.5054 10.873 7.23133 11.8297 8.07528 12.685L8.10082 12.7199L8.14125 12.7486L8.16572 12.7763L8.19551 12.8009C9.08573 13.6171 10.0804 14.3203 11.1554 14.8935C12.3842 15.5387 13.13 15.8434 13.5779 15.9706V15.9767C13.7088 16.0157 13.828 16.0331 13.9482 16.0331C14.3297 16.0059 14.6907 15.8564 14.9738 15.6085C15.3196 15.313 15.6122 14.9653 15.8399 14.5786V14.5714C16.0537 14.1816 15.9814 13.8144 15.6728 13.5651C15.0531 13.043 14.3829 12.5793 13.6716 12.1803C13.1949 11.9311 12.7108 12.0819 12.5151 12.3342L12.0969 12.843C11.882 13.0953 11.4926 13.0604 11.4926 13.0604L11.482 13.0666C8.5764 12.3516 7.80079 9.51539 7.80079 9.51539C7.80079 9.51539 7.76462 9.1297 8.03379 8.93275L8.55725 8.52654C8.80833 8.3296 8.98282 7.8639 8.71364 7.40435C8.30255 6.71787 7.82254 6.07195 7.28053 5.4759C7.16231 5.33563 6.99653 5.24009 6.8124 5.20613L6.81453 5.20715ZM11.7235 3.97418C11.5824 3.97418 11.4471 4.02821 11.3474 4.1244C11.2476 4.22058 11.1915 4.35104 11.1915 4.48706C11.1915 4.62309 11.2476 4.75354 11.3474 4.84973C11.4471 4.94591 11.5824 4.99995 11.7235 4.99995C13.0694 4.99995 14.1865 5.42359 15.0706 6.236C15.5249 6.68016 15.8792 7.20638 16.1112 7.78286C16.3442 8.36037 16.4506 8.97686 16.4229 9.59437C16.42 9.66172 16.4308 9.72897 16.4548 9.79228C16.4789 9.85559 16.5156 9.91372 16.5629 9.96334C16.6585 10.0636 16.7914 10.1231 16.9325 10.1288C17.0736 10.1345 17.2113 10.086 17.3152 9.99381C17.4192 9.90166 17.4809 9.77348 17.4868 9.63745C17.5198 8.87785 17.389 8.11992 17.1027 7.41153C16.8152 6.69979 16.3792 6.05251 15.8218 5.50976L15.8111 5.4995C14.7142 4.48911 13.3258 3.97418 11.7235 3.97418ZM11.6873 5.66054C11.5462 5.66054 11.4109 5.71458 11.3112 5.81076C11.2114 5.90695 11.1554 6.0374 11.1554 6.17343C11.1554 6.30945 11.2114 6.43991 11.3112 6.53609C11.4109 6.63228 11.5462 6.68631 11.6873 6.68631H11.7054C12.6757 6.75299 13.3822 7.06482 13.8769 7.57668C14.3844 8.10393 14.6472 8.75939 14.627 9.56975C14.6237 9.70578 14.6767 9.83747 14.7741 9.93587C14.8716 10.0343 15.0056 10.0913 15.1467 10.0944C15.2878 10.0976 15.4244 10.0465 15.5264 9.95255C15.6285 9.85858 15.6877 9.72937 15.6909 9.59334C15.7164 8.52962 15.3611 7.61156 14.6568 6.87916V6.87711C13.9365 6.1324 12.9481 5.7385 11.7586 5.66157L11.7405 5.65952L11.6873 5.66054ZM11.6671 7.37871C11.5959 7.37265 11.5242 7.38049 11.4562 7.40175C11.3882 7.42301 11.3254 7.45726 11.2714 7.50245C11.2175 7.54765 11.1736 7.60286 11.1422 7.66479C11.1109 7.72672 11.0928 7.79411 11.0891 7.86292C11.0854 7.93173 11.0961 8.00056 11.1206 8.0653C11.1451 8.13003 11.1828 8.18935 11.2316 8.2397C11.2804 8.29006 11.3392 8.33042 11.4045 8.35838C11.4698 8.38633 11.5403 8.40132 11.6118 8.40243C12.0565 8.42499 12.3406 8.55424 12.5193 8.72759C12.6991 8.90198 12.8332 9.18201 12.8577 9.62001C12.859 9.68884 12.8747 9.75671 12.9038 9.81957C12.9329 9.88243 12.9748 9.939 13.0271 9.9859C13.0794 10.0328 13.1409 10.0691 13.208 10.0926C13.2751 10.1161 13.3464 10.1263 13.4177 10.1226C13.489 10.119 13.5589 10.1015 13.623 10.0713C13.6872 10.0411 13.7444 9.99875 13.7912 9.94678C13.838 9.8948 13.8735 9.83427 13.8955 9.76879C13.9176 9.70331 13.9257 9.63422 13.9195 9.56565C13.8854 8.95019 13.6854 8.40653 13.2758 8.00648C12.864 7.60643 12.3034 7.41153 11.6671 7.37871Z" fill="#724DF6"/>
</svg>

<svg id="yt"  viewBox="0 0 22 22" fill="none" xmlns="http://www.w3.org/2000/svg">
<path d="M8.8 14.7143L14.509 11.5L8.8 8.28571V14.7143ZM21.516 6.325C21.659 6.82857 21.758 7.50357 21.824 8.36071C21.901 9.21786 21.934 9.95714 21.934 10.6L22 11.5C22 13.8464 21.824 15.5714 21.516 16.675C21.241 17.6393 20.603 18.2607 19.613 18.5286C19.096 18.6679 18.15 18.7643 16.698 18.8286C15.268 18.9036 13.959 18.9357 12.749 18.9357L11 19C6.391 19 3.52 18.8286 2.387 18.5286C1.397 18.2607 0.759 17.6393 0.484 16.675C0.341 16.1714 0.242 15.4964 0.176 14.6393C0.0990001 13.7821 0.0659999 13.0429 0.0659999 12.4L0 11.5C0 9.15357 0.176 7.42857 0.484 6.325C0.759 5.36071 1.397 4.73929 2.387 4.47143C2.904 4.33214 3.85 4.23571 5.302 4.17143C6.732 4.09643 8.041 4.06429 9.251 4.06429L11 4C15.609 4 18.48 4.17143 19.613 4.47143C20.603 4.73929 21.241 5.36071 21.516 6.325Z" fill="#FF0000"/>
</svg>





<svg id="search-mob" width="24" height="24" viewBox="0 0 24 24" fill="none" xmlns="http://www.w3.org/2000/svg">
<path d="M11 19C15.4183 19 19 15.4183 19 11C19 6.58172 15.4183 3 11 3C6.58172 3 3 6.58172 3 11C3 15.4183 6.58172 19 11 19Z" stroke="#2E2E2E" stroke-opacity="0.7" stroke-width="2" stroke-linecap="round" stroke-linejoin="round"/>
<path d="M20.9999 20.9999L16.6499 16.6499" stroke="#2E2E2E" stroke-opacity="0.7" stroke-width="2" stroke-linecap="round" stroke-linejoin="round"/>
</svg>

<svg id="mob-tg" width="32" height="32" viewBox="0 0 32 32" fill="none" xmlns="http://www.w3.org/2000/svg">
<g clip-path="url(#clip0_2136_6713)">
<path d="M16 0C11.7575 0 7.685 1.68675 4.6875 4.68625C1.68691 7.68694 0.000831175 11.7565 0 16C0 20.2417 1.6875 24.3142 4.6875 27.3137C7.685 30.3132 11.7575 32 16 32C20.2425 32 24.315 30.3132 27.3125 27.3137C30.3125 24.3142 32 20.2417 32 16C32 11.7583 30.3125 7.68575 27.3125 4.68625C24.315 1.68675 20.2425 0 16 0Z" fill="currentColor" fill-opacity="0.7"/>
<path d="M7.24262 15.8311C11.9076 13.7991 15.0176 12.4593 16.5726 11.8121C21.0176 9.96381 21.9401 9.64281 22.5426 9.63193C22.6751 9.62981 22.9701 9.66256 23.1626 9.81818C23.3226 9.94943 23.3676 10.1269 23.3901 10.2516C23.4101 10.3761 23.4376 10.6598 23.4151 10.8813C23.1751 13.4113 22.1326 19.5508 21.6026 22.3846C21.3801 23.5836 20.9376 23.9856 20.5101 24.0248C19.5801 24.1103 18.8751 23.4108 17.9751 22.8211C16.5676 21.8978 15.7726 21.3233 14.4051 20.4226C12.8251 19.3816 13.8501 18.8093 14.7501 17.8743C14.9851 17.6296 19.0801 13.9058 19.1576 13.5681C19.1676 13.5258 19.1776 13.3683 19.0826 13.2853C18.9901 13.2021 18.8526 13.2306 18.7526 13.2531C18.6101 13.2851 16.3626 14.7721 12.0026 17.7138C11.3651 18.1523 10.7876 18.3661 10.2676 18.3548C9.69762 18.3426 8.59762 18.0318 7.78012 17.7663C6.78012 17.4406 5.98262 17.2683 6.05262 16.7151C6.08762 16.4271 6.48512 16.1323 7.24262 15.8311Z" fill="white"/>
</g>
<defs>
<clipPath id="clip0_2136_6713">
<rect width="32" height="32" fill="white"/>
</clipPath>
</defs>
</svg>

<svg id="mob-wa" width="32" height="32" viewBox="0 0 32 32" fill="none" xmlns="http://www.w3.org/2000/svg">
<g clip-path="url(#clip0_2136_6714)">
<path d="M0.682949 15.8086C0.682199 18.4972 1.3902 21.1224 2.73645 23.4363L0.554199 31.3423L8.7082 29.2209C10.9635 30.4391 13.4904 31.0775 16.0582 31.0776H16.0649C24.5418 31.0776 31.4422 24.2332 31.4458 15.8206C31.4474 11.7441 29.8489 7.91076 26.9447 5.02679C24.041 2.14307 20.1791 0.554107 16.0643 0.552246C7.58645 0.552246 0.686574 7.39628 0.683074 15.8086" fill="currentColor" fill-opacity="0.7"/>
<path d="M0.13375 15.8035C0.132875 18.5889 0.86625 21.308 2.2605 23.7048L0 31.8942L8.44637 29.6967C10.7736 30.9558 13.3939 31.6196 16.0601 31.6206H16.067C24.848 31.6206 31.9963 24.53 32 15.8162C32.0015 11.5932 30.3455 7.62208 27.3375 4.63479C24.3291 1.64788 20.3291 0.00173643 16.067 0C7.2845 0 0.13725 7.08961 0.13375 15.8035ZM5.16388 23.292L4.8485 22.7953C3.52275 20.7036 2.823 18.2865 2.824 15.8045C2.82675 8.56174 8.76725 2.66915 16.072 2.66915C19.6095 2.67064 22.934 4.03895 25.4345 6.52155C27.9349 9.0044 29.3108 12.3049 29.3099 15.8152C29.3066 23.058 23.366 28.9513 16.067 28.9513H16.0618C13.6851 28.9501 11.3542 28.3168 9.3215 27.12L8.83775 26.8353L3.8255 28.1393L5.16388 23.292Z" fill="#2E2E2E" fill-opacity="0.7"/>
<path d="M12.0847 9.19662C11.7864 8.53888 11.4726 8.52561 11.1889 8.51407C10.9567 8.50415 10.6912 8.5049 10.4259 8.5049C10.1604 8.5049 9.72907 8.604 9.36445 8.99904C8.99945 9.39445 7.97095 10.35 7.97095 12.2934C7.97095 14.237 9.39757 16.1152 9.59645 16.379C9.79557 16.6423 12.3506 20.7582 16.3971 22.3415C19.7601 23.6574 20.4444 23.3957 21.1743 23.3297C21.9043 23.264 23.5298 22.3744 23.8614 21.452C24.1933 20.5297 24.1933 19.7391 24.0938 19.5739C23.9943 19.4093 23.7288 19.3105 23.3307 19.113C22.9324 18.9154 20.9752 17.9598 20.6103 17.8279C20.2453 17.6962 19.9799 17.6305 19.7144 18.026C19.4489 18.4209 18.6866 19.3105 18.4542 19.5739C18.2221 19.838 17.9897 19.8708 17.5917 19.6733C17.1933 19.4751 15.9112 19.0584 14.3901 17.7128C13.2066 16.6658 12.4076 15.3727 12.1753 14.9772C11.9431 14.5823 12.1504 14.3682 12.3501 14.1714C12.5289 13.9944 12.7483 13.7101 12.9476 13.4795C13.1461 13.2488 13.2123 13.0842 13.3451 12.8208C13.4779 12.5571 13.4114 12.3264 13.3121 12.1288C13.2123 11.9313 12.4387 9.97764 12.0847 9.19662Z" fill="white"/>
</g>
<defs>
<clipPath id="clip0_2136_6714">
<rect width="32" height="32" fill="white"/>
</clipPath>
</defs>
</svg>

<svg id="mob-viber" width="32" height="32" viewBox="0 0 32 32" fill="none" xmlns="http://www.w3.org/2000/svg">
<path fill-rule="evenodd" clip-rule="evenodd" d="M23.3927 2.24157C18.5239 1.19226 13.4748 1.19226 8.60596 2.24157L8.08134 2.35348C6.7118 2.64869 5.45395 3.30417 4.44752 4.24711C3.44109 5.19004 2.72549 6.38351 2.38021 7.69494C1.14605 12.3837 1.14605 17.2954 2.38021 21.9841C2.70949 23.2348 3.37591 24.3793 4.3119 25.3017C5.2479 26.224 6.42019 26.8914 7.70993 27.236L8.42954 31.3779C8.45251 31.5094 8.51163 31.6326 8.60075 31.7346C8.68987 31.8366 8.80572 31.9137 8.93624 31.9579C9.06677 32.0021 9.20719 32.0117 9.34289 31.9858C9.47859 31.9599 9.6046 31.8994 9.70781 31.8106L13.9341 28.1656C17.1067 28.3522 20.2908 28.1076 23.3927 27.439L23.9188 27.3271C25.2884 27.0318 26.5462 26.3764 27.5527 25.4334C28.5591 24.4905 29.2747 23.297 29.62 21.9856C30.854 17.2968 30.854 12.3852 29.62 7.69643C29.2746 6.38481 28.5587 5.19121 27.552 4.24826C26.5453 3.30531 25.2871 2.64994 23.9173 2.35497L23.3927 2.24157ZM9.91208 7.57409C9.62447 7.53372 9.33119 7.58954 9.08105 7.73224H9.05939C8.47906 8.06049 7.95599 8.47378 7.5103 8.96018C7.13889 9.37347 6.93771 9.79124 6.8851 10.1941C6.85415 10.4328 6.87581 10.6745 6.94855 10.9028L6.9764 10.9177C7.39424 12.1009 7.93897 13.2393 8.60441 14.3106C9.46245 15.8153 10.5183 17.2069 11.7459 18.451L11.7831 18.5017L11.8419 18.5435L11.8775 18.5838L11.9208 18.6196C13.2157 19.8067 14.6624 20.8295 16.226 21.6633C18.0134 22.6018 19.0983 23.0449 19.7498 23.2299V23.2389C19.9401 23.2956 20.1134 23.321 20.2883 23.321C20.8432 23.2814 21.3684 23.064 21.7801 22.7033C22.2831 22.2736 22.7087 21.7678 23.0398 21.2053V21.1948C23.3509 20.6278 23.2457 20.0937 22.7969 19.7311C21.8954 18.9717 20.9207 18.2973 19.886 17.7169C19.1927 17.3543 18.4885 17.5737 18.2038 17.9407L17.5956 18.6807C17.283 19.0478 16.7166 18.9971 16.7166 18.9971L16.7011 19.006C12.4748 17.9661 11.3466 13.8406 11.3466 13.8406C11.3466 13.8406 11.294 13.2796 11.6856 12.9931L12.4469 12.4023C12.8122 12.1158 13.066 11.4384 12.6744 10.77C12.0765 9.77149 11.3783 8.83198 10.5899 7.965C10.418 7.76095 10.1768 7.62199 9.90899 7.57259L9.91208 7.57409ZM17.0524 5.78067C16.8472 5.78067 16.6504 5.85926 16.5053 5.99917C16.3602 6.13907 16.2787 6.32883 16.2787 6.52668C16.2787 6.72454 16.3602 6.91429 16.5053 7.05419C16.6504 7.1941 16.8472 7.2727 17.0524 7.2727C19.0101 7.2727 20.635 7.8889 21.921 9.07059C22.5818 9.71664 23.0971 10.482 23.4345 11.3206C23.7734 12.1606 23.9281 13.0573 23.8879 13.9555C23.8836 14.0535 23.8994 14.1513 23.9344 14.2434C23.9693 14.3354 24.0227 14.42 24.0915 14.4922C24.2306 14.638 24.4239 14.7245 24.6292 14.7328C24.8344 14.7411 25.0346 14.6705 25.1858 14.5365C25.337 14.4025 25.4268 14.216 25.4354 14.0182C25.4834 12.9133 25.2932 11.8108 24.8768 10.7805C24.4585 9.74519 23.8244 8.80369 23.0135 8.01423L22.9981 7.99931C21.4025 6.52966 19.383 5.78067 17.0524 5.78067ZM16.9998 8.23356C16.7946 8.23356 16.5978 8.31216 16.4527 8.45206C16.3076 8.59197 16.226 8.78172 16.226 8.97958C16.226 9.17743 16.3076 9.36718 16.4527 9.50709C16.5978 9.64699 16.7946 9.72559 16.9998 9.72559H17.0261C18.4375 9.82257 19.465 10.2761 20.1846 11.0207C20.9228 11.7876 21.3051 12.741 21.2756 13.9197C21.2709 14.1175 21.3479 14.3091 21.4897 14.4522C21.6315 14.5953 21.8264 14.6783 22.0316 14.6829C22.2368 14.6874 22.4355 14.6132 22.584 14.4765C22.7324 14.3398 22.8185 14.1519 22.8232 13.954C22.8603 12.4068 22.3435 11.0714 21.319 10.0061V10.0031C20.2713 8.91989 18.8336 8.34696 17.1035 8.23505L17.0772 8.23207L16.9998 8.23356ZM16.9704 10.7327C16.8668 10.7239 16.7625 10.7353 16.6636 10.7662C16.5648 10.7971 16.4733 10.847 16.3949 10.9127C16.3164 10.9784 16.2525 11.0587 16.2069 11.1488C16.1613 11.2389 16.1351 11.3369 16.1297 11.437C16.1243 11.5371 16.1398 11.6372 16.1754 11.7314C16.211 11.8255 16.266 11.9118 16.3369 11.9851C16.4079 12.0583 16.4934 12.117 16.5884 12.1577C16.6834 12.1983 16.786 12.2201 16.8899 12.2218C17.5368 12.2546 17.95 12.4426 18.21 12.6947C18.4715 12.9484 18.6665 13.3557 18.7021 13.9928C18.704 14.0929 18.7268 14.1916 18.7692 14.2831C18.8115 14.3745 18.8725 14.4568 18.9485 14.525C19.0246 14.5932 19.114 14.646 19.2117 14.6801C19.3093 14.7143 19.4131 14.7292 19.5168 14.7239C19.6205 14.7186 19.722 14.6932 19.8153 14.6492C19.9087 14.6053 19.9918 14.5437 20.0599 14.4681C20.128 14.3925 20.1797 14.3044 20.2117 14.2092C20.2438 14.114 20.2556 14.0135 20.2465 13.9137C20.197 13.0185 19.9061 12.2277 19.3103 11.6458C18.7114 11.0639 17.8958 10.7805 16.9704 10.7327Z" fill="currentColor" fill-opacity="0.7"/>
</svg>


<svg id="arr-l"  viewBox="0 0 29 20" fill="none" xmlns="http://www.w3.org/2000/svg">
<path d="M2.2 10.0005L1.4448 9.24533L0.691734 10.0005L1.4448 10.7557L2.2 10.0005ZM2.9552 10.7557L11.4885 2.2224L9.97813 0.711996L1.4448 9.24533L2.9552 10.7557ZM1.4448 10.7557L9.97813 19.2891L11.4885 17.7787L2.9552 9.24533L1.4448 10.7557ZM2.2 11.0672L28.8667 11.0672V8.93386L2.2 8.93386L2.2 11.0672Z" fill="currentColor"/>
</svg>

<svg id="arr-r"  viewBox="0 0 29 20" fill="none" xmlns="http://www.w3.org/2000/svg">
<path d="M26.8 9.99947L27.5552 10.7547L28.3083 9.99947L27.5552 9.24427L26.8 9.99947ZM26.0448 9.24427L17.5115 17.7776L19.0219 19.288L27.5552 10.7547L26.0448 9.24427ZM27.5552 9.24427L19.0219 0.710938L17.5115 2.22134L26.0448 10.7547L27.5552 9.24427ZM26.8 8.9328L0.133327 8.9328V11.0661L26.8 11.0661V8.9328Z" fill="currentColor"/>
</svg>

<svg id="arr-white" viewBox="0 0 42 28" fill="none" xmlns="http://www.w3.org/2000/svg">
<path d="M28.0888 27.1983L24.7965 23.8896L32.4265 16.2946L0.681515 16.2643L0.686184 11.5976L32.3448 11.6279L24.8432 4.09127L28.1495 0.80127L41.3188 14.0313L28.0888 27.1983Z" fill="white"/>
</svg>

<svg id="tg-w" viewBox="0 0 19 20" fill="none" xmlns="http://www.w3.org/2000/svg">
<path d="M9.50016 0.833252C4.44016 0.833252 0.333496 4.93992 0.333496 9.99992C0.333496 15.0599 4.44016 19.1666 9.50016 19.1666C14.5602 19.1666 18.6668 15.0599 18.6668 9.99992C18.6668 4.93992 14.5602 0.833252 9.50016 0.833252ZM13.7535 7.06659C13.616 8.51492 13.0202 12.0349 12.7177 13.6574C12.5893 14.3449 12.3327 14.5741 12.0943 14.6016C11.5627 14.6474 11.1593 14.2533 10.646 13.9141C9.83933 13.3824 9.381 13.0524 8.60183 12.5391C7.69433 11.9433 8.281 11.6133 8.8035 11.0816C8.941 10.9441 11.2877 8.80825 11.3335 8.61575C11.3399 8.5866 11.339 8.55633 11.331 8.52757C11.323 8.49882 11.3082 8.47245 11.2877 8.45075C11.2327 8.40492 11.1593 8.42325 11.0952 8.43242C11.0127 8.45075 9.72933 9.30325 7.22683 10.9899C6.86016 11.2374 6.53016 11.3658 6.23683 11.3566C5.90683 11.3474 5.2835 11.1733 4.816 11.0174C4.2385 10.8341 3.78933 10.7333 3.826 10.4124C3.84433 10.2474 4.0735 10.0824 4.50433 9.90825C7.181 8.74409 8.95933 7.97409 9.8485 7.60742C12.3968 6.54409 12.9193 6.36075 13.2677 6.36075C13.341 6.36075 13.5152 6.37909 13.6252 6.47075C13.7168 6.54409 13.7443 6.64492 13.7535 6.71825C13.7443 6.77325 13.7627 6.93825 13.7535 7.06659Z" fill="white"/>
</svg>

<svg id="wa-w" viewBox="0 0 20 20" fill="none" xmlns="http://www.w3.org/2000/svg">
<path d="M10.0012 0.833252C15.0639 0.833252 19.1678 4.93717 19.1678 9.99992C19.1678 15.0627 15.0639 19.1666 10.0012 19.1666C8.3812 19.1692 6.78975 18.7405 5.39032 17.9245L0.838152 19.1666L2.07749 14.6126C1.26082 13.2127 0.831779 11.6206 0.834485 9.99992C0.834485 4.93717 4.9384 0.833252 10.0012 0.833252ZM6.87715 5.69159L6.69382 5.69892C6.57513 5.70615 6.45913 5.73733 6.35282 5.79059C6.25338 5.8469 6.16261 5.91729 6.08332 5.99959C5.97332 6.10317 5.91099 6.193 5.84407 6.28009C5.50501 6.72091 5.32246 7.26212 5.32524 7.81825C5.32707 8.26742 5.4444 8.70467 5.62774 9.1135C6.00265 9.94034 6.61957 10.8158 7.43357 11.627C7.62974 11.8223 7.82224 12.0184 8.0294 12.2008C9.04084 13.0913 10.2461 13.7335 11.5494 14.0763L12.0701 14.1561C12.2397 14.1653 12.4092 14.1524 12.5797 14.1442C12.8467 14.1304 13.1074 14.0581 13.3433 13.9324C13.4634 13.8706 13.5805 13.8033 13.6944 13.7308C13.6944 13.7308 13.7338 13.7051 13.809 13.6483C13.9327 13.5566 14.0088 13.4915 14.1115 13.3843C14.1876 13.3054 14.2536 13.2128 14.304 13.1074C14.3755 12.958 14.447 12.6729 14.4763 12.4355C14.4983 12.254 14.4919 12.155 14.4892 12.0936C14.4855 11.9955 14.4039 11.8938 14.315 11.8507L13.7815 11.6114C13.7815 11.6114 12.984 11.264 12.4963 11.0422C12.4453 11.0199 12.3906 11.0071 12.335 11.0046C12.2723 10.9981 12.2089 11.0052 12.1491 11.0253C12.0894 11.0454 12.0346 11.078 11.9885 11.121C11.9839 11.1192 11.9225 11.1714 11.2597 11.9744C11.2217 12.0255 11.1693 12.0642 11.1092 12.0854C11.0491 12.1066 10.9841 12.1095 10.9224 12.0936C10.8627 12.0776 10.8042 12.0574 10.7473 12.0331C10.6337 11.9854 10.5942 11.9671 10.5163 11.9341C9.99021 11.7045 9.50312 11.3943 9.07257 11.0147C8.95707 10.9138 8.84982 10.8038 8.73982 10.6975C8.37919 10.3521 8.0649 9.96142 7.80482 9.53517L7.75074 9.44808C7.71189 9.38957 7.68048 9.32645 7.65724 9.26017C7.6224 9.12542 7.71315 9.01725 7.71315 9.01725C7.71315 9.01725 7.9359 8.77342 8.03949 8.64142C8.14032 8.51309 8.22557 8.38842 8.28057 8.2995C8.38874 8.12534 8.42265 7.94659 8.36582 7.80817C8.10915 7.18117 7.84332 6.55692 7.57015 5.93725C7.51607 5.81442 7.35565 5.72642 7.2099 5.709C7.1604 5.7035 7.1109 5.698 7.0614 5.69434C6.9383 5.68822 6.81494 5.68944 6.69199 5.698L6.87715 5.69159Z" fill="white"/>
</svg>

<svg id="vi-w" viewBox="0 0 19 20" fill="none" xmlns="http://www.w3.org/2000/svg">
<path fill-rule="evenodd" clip-rule="evenodd" d="M13.7863 1.40904C10.9023 0.764369 7.91153 0.764369 5.02754 1.40904L4.71679 1.47779C3.90555 1.65916 3.16048 2.06188 2.56433 2.64119C1.96819 3.22051 1.54431 3.95375 1.33979 4.75946C0.608743 7.64011 0.608743 10.6577 1.33979 13.5384C1.53483 14.3068 1.92958 15.01 2.484 15.5766C3.03843 16.1433 3.73282 16.5533 4.49679 16.765L4.92304 19.3097C4.93664 19.3905 4.97166 19.4662 5.02445 19.5289C5.07724 19.5915 5.14586 19.6389 5.22318 19.6661C5.30049 19.6932 5.38367 19.6991 5.46405 19.6832C5.54443 19.6673 5.61907 19.6301 5.6802 19.5755L8.18362 17.3361C10.0629 17.4508 11.9489 17.3005 13.7863 16.8897L14.098 16.821C14.9092 16.6396 15.6543 16.2369 16.2504 15.6576C16.8466 15.0782 17.2704 14.345 17.475 13.5393C18.2059 10.6586 18.2059 7.64103 17.475 4.76037C17.2704 3.95455 16.8463 3.22123 16.25 2.6419C15.6537 2.06258 14.9084 1.65993 14.097 1.47871L13.7863 1.40904ZM5.8012 4.68521C5.63084 4.66041 5.45712 4.6947 5.30895 4.78238H5.29612C4.95237 4.98404 4.64254 5.23796 4.37854 5.53679C4.15854 5.79071 4.03937 6.04738 4.0082 6.29488C3.98987 6.44154 4.0027 6.59004 4.04579 6.73029L4.06229 6.73946C4.30979 7.46637 4.63245 8.16579 5.02662 8.82396C5.53487 9.74841 6.16031 10.6034 6.88745 11.3677L6.90945 11.3989L6.94429 11.4245L6.96537 11.4493L6.99104 11.4713C7.75804 12.2006 8.61502 12.829 9.5412 13.3413C10.6 13.9179 11.2425 14.1901 11.6285 14.3038V14.3093C11.7412 14.3441 11.8439 14.3597 11.9475 14.3597C12.2761 14.3354 12.5872 14.2018 12.8311 13.9802C13.129 13.7162 13.3811 13.4055 13.5773 13.0599V13.0535C13.7615 12.7051 13.6992 12.377 13.4334 12.1542C12.8994 11.6877 12.322 11.2733 11.7091 10.9167C11.2985 10.694 10.8814 10.8287 10.7127 11.0542L10.3525 11.5089C10.1673 11.7344 9.83179 11.7032 9.83179 11.7032L9.82262 11.7087C7.3192 11.0698 6.65095 8.53521 6.65095 8.53521C6.65095 8.53521 6.61979 8.19054 6.8517 8.01454L7.3027 7.65154C7.51904 7.47554 7.66937 7.05937 7.43745 6.64871C7.08326 6.03524 6.66969 5.45803 6.2027 4.92538C6.10085 4.80002 5.95801 4.71464 5.79937 4.68429L5.8012 4.68521ZM10.0307 3.58337C9.90915 3.58337 9.79257 3.63166 9.70661 3.71762C9.62066 3.80357 9.57237 3.92015 9.57237 4.04171C9.57237 4.16327 9.62066 4.27984 9.70661 4.3658C9.79257 4.45175 9.90915 4.50004 10.0307 4.50004C11.1903 4.50004 12.1528 4.87862 12.9145 5.60462C13.306 6.00154 13.6112 6.47179 13.811 6.98696C14.0118 7.50304 14.1035 8.05396 14.0796 8.60579C14.0771 8.66598 14.0864 8.72608 14.1071 8.78265C14.1278 8.83923 14.1595 8.89117 14.2003 8.93552C14.2826 9.02508 14.3971 9.07827 14.5187 9.08337C14.6403 9.08848 14.7589 9.04509 14.8484 8.96274C14.938 8.8804 14.9912 8.76585 14.9963 8.64429C15.0247 7.96549 14.912 7.28816 14.6654 6.65512C14.4176 6.01908 14.042 5.44065 13.5617 4.95563L13.5525 4.94646C12.6075 4.04354 11.4112 3.58337 10.0307 3.58337ZM9.99954 5.09037C9.87798 5.09037 9.7614 5.13866 9.67545 5.22462C9.58949 5.31057 9.5412 5.42715 9.5412 5.54871C9.5412 5.67027 9.58949 5.78684 9.67545 5.8728C9.7614 5.95875 9.87798 6.00704 9.99954 6.00704H10.0151C10.8511 6.06663 11.4598 6.34529 11.886 6.80271C12.3233 7.27388 12.5497 7.85962 12.5323 8.58379C12.5295 8.70535 12.5751 8.82304 12.6591 8.91097C12.7431 8.9989 12.8585 9.04987 12.9801 9.05267C13.1016 9.05546 13.2193 9.00986 13.3073 8.92588C13.3952 8.8419 13.4462 8.72643 13.449 8.60487C13.471 7.65429 13.1648 6.83387 12.558 6.17937V6.17754C11.9374 5.51204 11.0858 5.16004 10.061 5.09129L10.0454 5.08946L9.99954 5.09037ZM9.98212 6.62579C9.92078 6.62038 9.85898 6.62738 9.80041 6.64638C9.74184 6.66538 9.6877 6.69599 9.64122 6.73638C9.59474 6.77676 9.55687 6.8261 9.52988 6.88145C9.50289 6.93679 9.48733 6.99701 9.48412 7.0585C9.48092 7.12 9.49014 7.1815 9.51123 7.23935C9.53232 7.2972 9.56486 7.35021 9.60689 7.39521C9.64892 7.44021 9.69959 7.47628 9.75587 7.50126C9.81215 7.52625 9.87288 7.53963 9.93445 7.54063C10.3176 7.56079 10.5624 7.67629 10.7164 7.83121C10.8713 7.98704 10.9868 8.23729 11.0079 8.62871C11.009 8.69022 11.0225 8.75086 11.0476 8.80704C11.0727 8.86321 11.1088 8.91376 11.1538 8.95568C11.1989 8.99759 11.2519 9.03001 11.3097 9.051C11.3675 9.072 11.429 9.08114 11.4904 9.07787C11.5519 9.07461 11.612 9.05901 11.6673 9.03201C11.7226 9.00501 11.7718 8.96716 11.8122 8.92072C11.8525 8.87427 11.8831 8.82018 11.9021 8.76166C11.9211 8.70315 11.9281 8.64141 11.9227 8.58012C11.8934 8.03012 11.721 7.54429 11.3681 7.18679C11.0134 6.82929 10.5303 6.65513 9.98212 6.62579Z" fill="white"/>
</svg>

<svg id="services-arr" viewBox="0 0 27 17" fill="none" xmlns="http://www.w3.org/2000/svg">
<path d="M18.057 16.9846L15.9405 14.8576L20.8455 9.97514L0.438013 9.95564L0.441015 6.95564L20.793 6.97514L15.9705 2.13014L18.096 0.0151367L26.562 8.52014L18.057 16.9846Z" fill="currentColor"/>
</svg>

<svg id="star" viewBox="0 0 25 24" fill="none" xmlns="http://www.w3.org/2000/svg">
<path d="M12.5 0.5L15.3064 9.13729H24.3882L17.0409 14.4754L19.8473 23.1127L12.5 17.7746L5.15268 23.1127L7.95911 14.4754L0.611794 9.13729H9.69357L12.5 0.5Z" fill="#F1CB00"/>
</svg>


<svg id="map-pin" viewBox="0 0 18 18" fill="none" xmlns="http://www.w3.org/2000/svg">
<path d="M15.75 7.5C15.75 12.75 9 17.25 9 17.25C9 17.25 2.25 12.75 2.25 7.5C2.25 5.70979 2.96116 3.9929 4.22703 2.72703C5.4929 1.46116 7.20979 0.75 9 0.75C10.7902 0.75 12.5071 1.46116 13.773 2.72703C15.0388 3.9929 15.75 5.70979 15.75 7.5Z" stroke="currentColor" stroke-linecap="round" stroke-linejoin="round"/>
<path d="M9 9.75C10.2426 9.75 11.25 8.74264 11.25 7.5C11.25 6.25736 10.2426 5.25 9 5.25C7.75736 5.25 6.75 6.25736 6.75 7.5C6.75 8.74264 7.75736 9.75 9 9.75Z" stroke="currentColor" stroke-linecap="round" stroke-linejoin="round"/>
</svg>


<svg id="tri" viewBox="0 0 10 7" fill="none" xmlns="http://www.w3.org/2000/svg">
<path d="M9.44963 0.000128746L1.3494 0.000128746C1.26739 0.000385761 1.187 0.023005 1.11689 0.0655508C1.04678 0.108097 0.989596 0.168958 0.951502 0.241584C0.913406 0.31421 0.895839 0.395852 0.900692 0.477719C0.905544 0.559587 0.932632 0.638581 0.97904 0.706199L5.02916 6.55636C5.19701 6.79892 5.60112 6.79892 5.76943 6.55636L9.81954 0.706199C9.86642 0.638722 9.89391 0.559689 9.89903 0.477684C9.90415 0.39568 9.88669 0.313842 9.84856 0.241062C9.81043 0.168282 9.75309 0.107342 9.68275 0.0648656C9.61242 0.0223889 9.53179 -9.53674e-07 9.44963 0.000128746Z" fill="currentColor"/>
</svg>

<svg id="tg-r" width="22" height="22" viewBox="0 0 22 22" fill="none" xmlns="http://www.w3.org/2000/svg">
<g clip-path="url(#clip0_2945_602)">
<path d="M11 0C8.08328 0 5.28344 1.15964 3.22266 3.2218C1.15975 5.28477 0.000571433 8.08256 0 11C0 13.9162 1.16016 16.716 3.22266 18.7782C5.28344 20.8404 8.08328 22 11 22C13.9167 22 16.7166 20.8404 18.7773 18.7782C20.8398 16.716 22 13.9162 22 11C22 8.0838 20.8398 5.28395 18.7773 3.2218C16.7166 1.15964 13.9167 0 11 0Z" fill="currentColor"/>
<path d="M4.97927 10.884C8.18646 9.48703 10.3246 8.56596 11.3936 8.12097C14.4496 6.8503 15.0838 6.62961 15.498 6.62214C15.5891 6.62067 15.7919 6.64319 15.9243 6.75018C16.0343 6.84042 16.0652 6.96245 16.0807 7.04813C16.0944 7.13372 16.1133 7.3288 16.0979 7.48108C15.9329 9.22046 15.2161 13.4414 14.8518 15.3896C14.6988 16.2139 14.3946 16.4903 14.1007 16.5172C13.4613 16.576 12.9766 16.0951 12.3579 15.6897C11.3902 15.0549 10.8436 14.66 9.90349 14.0407C8.81724 13.325 9.52193 12.9316 10.1407 12.2888C10.3022 12.1205 13.1176 9.56042 13.1708 9.32822C13.1777 9.29917 13.1846 9.19089 13.1193 9.13383C13.0557 9.0766 12.9611 9.09619 12.8924 9.11166C12.7944 9.13366 11.2493 10.156 8.25177 12.1784C7.81349 12.4799 7.41646 12.6268 7.05896 12.6191C6.66708 12.6107 5.91083 12.397 5.3488 12.2145C4.6613 11.9906 4.11302 11.8721 4.16115 11.4918C4.18521 11.2938 4.45849 11.0911 4.97927 10.884Z" fill="white"/>
</g>
<defs>
<clipPath id="clip0_2945_602">
<rect width="22" height="22" fill="white"/>
</clipPath>
</defs>
</svg>

<svg id="wa-r" width="22" height="22" viewBox="0 0 22 22" fill="none" xmlns="http://www.w3.org/2000/svg">
<g clip-path="url(#clip0_2945_605)">
<path d="M0.469375 10.8681C0.468859 12.7165 0.955609 14.5214 1.88116 16.1122L0.380859 21.5476L5.98673 20.0891C7.53724 20.9266 9.27448 21.3655 11.0399 21.3656H11.0445C16.8724 21.3656 21.6164 16.6601 21.6189 10.8764C21.62 8.07377 20.521 5.43837 18.5243 3.45564C16.528 1.47308 13.873 0.380674 11.0441 0.379395C5.21553 0.379395 0.471867 5.08467 0.469461 10.8681" fill="currentColor"/>
<path d="M0.0919531 10.8649C0.0913516 12.7799 0.595547 14.6493 1.55409 16.2971L0 21.9273L5.80688 20.4165C7.40687 21.2821 9.20829 21.7385 11.0413 21.7392H11.0461C17.083 21.7392 21.9974 16.8644 22 10.8736C22.001 7.97031 20.8625 5.24018 18.7945 3.18642C16.7263 1.13291 13.9763 0.0011938 11.0461 0C5.00809 0 0.0943594 4.87411 0.0919531 10.8649ZM3.55016 16.0133L3.33334 15.6718C2.42189 14.2337 1.94081 12.572 1.9415 10.8656C1.94339 5.88619 6.02748 1.83504 11.0495 1.83504C13.4815 1.83606 15.7671 2.77678 17.4862 4.48357C19.2052 6.19053 20.1511 8.4596 20.1505 10.8729C20.1483 15.8524 16.0641 19.904 11.0461 19.904H11.0425C9.40852 19.9032 7.80605 19.4678 6.40853 18.645L6.07595 18.4493L2.63003 19.3458L3.55016 16.0133Z" fill="currentColor"/>
<path d="M8.30867 6.32274C8.10363 5.87054 7.88784 5.86142 7.69284 5.85349C7.53317 5.84666 7.35064 5.84718 7.16828 5.84718C6.98575 5.84718 6.68918 5.91531 6.4385 6.1869C6.18756 6.45874 5.48047 7.11567 5.48047 8.45179C5.48047 9.78799 6.46127 11.0793 6.598 11.2606C6.7349 11.4417 8.49146 14.2713 11.2734 15.3599C13.5855 16.2645 14.056 16.0846 14.5578 16.0392C15.0597 15.994 16.1772 15.3825 16.4052 14.7483C16.6334 14.1142 16.6334 13.5707 16.5649 13.4571C16.4965 13.344 16.314 13.276 16.0403 13.1403C15.7665 13.0044 14.4209 12.3474 14.17 12.2568C13.9191 12.1662 13.7367 12.121 13.5541 12.3929C13.3716 12.6644 12.8475 13.276 12.6877 13.4571C12.5281 13.6387 12.3684 13.6613 12.0947 13.5254C11.8209 13.3892 10.9394 13.1027 9.89362 12.1776C9.07996 11.4578 8.53065 10.5688 8.37098 10.2969C8.2113 10.0254 8.35388 9.87821 8.49112 9.74288C8.61409 9.6212 8.76491 9.42576 8.9019 9.26724C9.03837 9.10863 9.08391 8.99548 9.17518 8.81436C9.26653 8.63308 9.22081 8.47447 9.15249 8.33863C9.08391 8.2028 8.55205 6.85969 8.30867 6.32274Z" fill="white"/>
</g>
<defs>
<clipPath id="clip0_2945_605">
<rect width="22" height="22" fill="white"/>
</clipPath>
</defs>
</svg>



<svg id="vi-r" width="21" height="24" viewBox="0 0 21 24" fill="none" xmlns="http://www.w3.org/2000/svg">
<g clip-path="url(#clip0_2945_609)">
<path fill-rule="evenodd" clip-rule="evenodd" d="M15.8366 1.5432C12.3219 0.78573 8.67708 0.78573 5.16239 1.5432L4.78369 1.62398C3.79505 1.83709 2.88704 2.31027 2.16052 2.99095C1.43401 3.67163 0.917434 4.53316 0.668185 5.47985C-0.222728 8.86453 -0.222728 12.4102 0.668185 15.7948C0.905883 16.6977 1.38695 17.5239 2.06262 18.1897C2.73829 18.8555 3.58454 19.3373 4.51558 19.5861L5.03504 22.576C5.05162 22.6709 5.0943 22.7599 5.15863 22.8335C5.22296 22.9071 5.3066 22.9628 5.40082 22.9947C5.49504 23.0266 5.59641 23.0335 5.69437 23.0148C5.79232 22.9961 5.88329 22.9525 5.95779 22.8883L9.00867 20.2571C11.2989 20.3918 13.5974 20.2153 15.8366 19.7326L16.2164 19.6518C17.205 19.4387 18.113 18.9655 18.8395 18.2848C19.5661 17.6041 20.0826 16.7426 20.3319 15.7959C21.2227 12.4112 21.2227 8.86562 20.3319 5.48093C20.0826 4.5341 19.5658 3.67247 18.8391 2.99178C18.1124 2.31109 17.2041 1.83799 16.2153 1.62506L15.8366 1.5432ZM6.10525 5.39261C5.89763 5.36347 5.68592 5.40376 5.50535 5.50678H5.48971C5.07079 5.74373 4.6932 6.04207 4.37147 6.3932C4.10336 6.69154 3.95813 6.99312 3.92015 7.28392C3.8978 7.45625 3.91344 7.63073 3.96595 7.79552L3.98606 7.8063C4.28768 8.6604 4.68091 9.4822 5.16128 10.2555C5.78067 11.3417 6.54289 12.3463 7.42905 13.2444L7.45586 13.281L7.49831 13.3111L7.524 13.3402L7.55528 13.3661C8.49002 14.223 9.53441 14.9614 10.6631 15.5633C11.9534 16.2407 12.7365 16.5606 13.2068 16.6942V16.7006C13.3442 16.7416 13.4694 16.7599 13.5956 16.7599C13.9961 16.7313 14.3752 16.5744 14.6725 16.314C15.0356 16.0038 15.3428 15.6387 15.5819 15.2326V15.2251C15.8064 14.8158 15.7304 14.4302 15.4065 14.1685C14.7557 13.6203 14.0521 13.1334 13.3051 12.7144C12.8047 12.4527 12.2964 12.6111 12.0908 12.876L11.6518 13.4102C11.4261 13.6752 11.0173 13.6386 11.0173 13.6386L11.0061 13.645C7.95522 12.8943 7.14083 9.91625 7.14083 9.91625C7.14083 9.91625 7.10285 9.51128 7.38548 9.30448L7.93511 8.87797C8.19875 8.67117 8.38196 8.18219 8.09933 7.69967C7.66767 6.97886 7.16366 6.30065 6.59455 5.6748C6.47043 5.5275 6.29635 5.42719 6.10302 5.39153L6.10525 5.39261ZM11.2597 4.09798C11.1115 4.09798 10.9695 4.15472 10.8647 4.25572C10.76 4.35671 10.7011 4.49369 10.7011 4.63651C10.7011 4.77934 10.76 4.91632 10.8647 5.01731C10.9695 5.1183 11.1115 5.17504 11.2597 5.17504C12.6729 5.17504 13.8458 5.61987 14.7742 6.4729C15.2512 6.93926 15.6232 7.4918 15.8667 8.0971C16.1114 8.70349 16.2231 9.3508 16.194 9.99919C16.191 10.0699 16.2024 10.1405 16.2276 10.207C16.2528 10.2735 16.2914 10.3345 16.3411 10.3866C16.4414 10.4918 16.581 10.5543 16.7291 10.5603C16.8773 10.5663 17.0218 10.5153 17.131 10.4186C17.2401 10.3218 17.3049 10.1872 17.3112 10.0444C17.3458 9.24684 17.2085 8.45101 16.9079 7.70721C16.606 6.95987 16.1482 6.28023 15.5629 5.71034L15.5517 5.69957C14.3999 4.63867 12.9421 4.09798 11.2597 4.09798ZM11.2217 5.86867C11.0736 5.86867 10.9315 5.92541 10.8267 6.0264C10.722 6.12739 10.6631 6.26437 10.6631 6.4072C10.6631 6.55002 10.722 6.687 10.8267 6.78799C10.9315 6.88899 11.0736 6.94573 11.2217 6.94573H11.2407C12.2595 7.01573 13.0013 7.34316 13.5208 7.88061C14.0536 8.43422 14.3296 9.12246 14.3083 9.97334C14.3049 10.1162 14.3605 10.2544 14.4628 10.3578C14.5652 10.4611 14.7059 10.521 14.854 10.5243C15.0022 10.5275 15.1456 10.4739 15.2528 10.3753C15.3599 10.2766 15.422 10.1409 15.4255 9.99811C15.4523 8.8812 15.0791 7.91723 14.3396 7.14821V7.14606C13.5833 6.36411 12.5455 5.95052 11.2965 5.86974L11.2776 5.86759L11.2217 5.86867ZM11.2005 7.67274C11.1257 7.66638 11.0504 7.67461 10.979 7.69693C10.9076 7.71926 10.8417 7.75522 10.785 7.80267C10.7284 7.85013 10.6822 7.9081 10.6493 7.97313C10.6164 8.03816 10.5975 8.10891 10.5936 8.18116C10.5897 8.25342 10.6009 8.32569 10.6266 8.39366C10.6523 8.46163 10.692 8.52391 10.7432 8.57679C10.7944 8.62966 10.8562 8.67204 10.9247 8.70139C10.9933 8.73075 11.0674 8.74648 11.1424 8.74764C11.6093 8.77134 11.9076 8.90705 12.0953 9.08907C12.2841 9.27217 12.4248 9.56621 12.4505 10.0261C12.4519 10.0984 12.4684 10.1696 12.499 10.2356C12.5295 10.3016 12.5736 10.361 12.6284 10.4103C12.6833 10.4595 12.7479 10.4976 12.8184 10.5223C12.8889 10.547 12.9638 10.5577 13.0386 10.5539C13.1135 10.55 13.1868 10.5317 13.2542 10.5C13.3215 10.4683 13.3816 10.4238 13.4307 10.3692C13.4799 10.3146 13.5172 10.2511 13.5403 10.1823C13.5634 10.1136 13.572 10.041 13.5654 9.96903C13.5297 9.32279 13.3197 8.75195 12.8896 8.3319C12.4572 7.91185 11.8685 7.70721 11.2005 7.67274Z" fill="currentColor"/>
</g>
<defs>
<clipPath id="clip0_2945_609">
<rect width="21" height="22.05" fill="white" transform="translate(0 0.975098)"/>
</clipPath>
</defs>
</svg>


<svg id="yt-r" width="22" height="22" viewBox="0 0 22 22" fill="none" xmlns="http://www.w3.org/2000/svg">
<path d="M8.8 14.7143L14.509 11.5L8.8 8.28571V14.7143ZM21.516 6.325C21.659 6.82857 21.758 7.50357 21.824 8.36071C21.901 9.21786 21.934 9.95714 21.934 10.6L22 11.5C22 13.8464 21.824 15.5714 21.516 16.675C21.241 17.6393 20.603 18.2607 19.613 18.5286C19.096 18.6679 18.15 18.7643 16.698 18.8286C15.268 18.9036 13.959 18.9357 12.749 18.9357L11 19C6.391 19 3.52 18.8286 2.387 18.5286C1.397 18.2607 0.759 17.6393 0.484 16.675C0.341 16.1714 0.242 15.4964 0.176 14.6393C0.0990001 13.7821 0.0659999 13.0429 0.0659999 12.4L0 11.5C0 9.15357 0.176 7.42857 0.484 6.325C0.759 5.36071 1.397 4.73929 2.387 4.47143C2.904 4.33214 3.85 4.23571 5.302 4.17143C6.732 4.09643 8.041 4.06429 9.251 4.06429L11 4C15.609 4 18.48 4.17143 19.613 4.47143C20.603 4.73929 21.241 5.36071 21.516 6.325Z" fill="currentColor"/>
</svg>


<svg id="incoming" width="22" height="23" viewBox="0 0 22 23" fill="none" xmlns="http://www.w3.org/2000/svg">
<rect x="0.5" y="1" width="21" height="21" rx="10.5" stroke="#B11413"/>
<path d="M13.1152 6.8457V9.38403H15.6537" stroke="#B11413" stroke-linecap="round" stroke-linejoin="round"/>
<path d="M16.4998 6L13.1152 9.38444" stroke="#B11413" stroke-linecap="round" stroke-linejoin="round"/>
<path d="M15.6534 14.4474V15.9759C15.654 16.1178 15.6248 16.2582 15.5679 16.3883C15.5109 16.5183 15.4274 16.635 15.3226 16.7309C15.2178 16.8268 15.0941 16.8999 14.9595 16.9453C14.8248 16.9908 14.682 17.0077 14.5404 16.9949C12.9695 16.8245 11.4604 16.2888 10.1346 15.4307C8.90109 14.6485 7.85528 13.6048 7.07146 12.3738C6.20866 11.0446 5.67172 9.5313 5.50414 7.95645C5.49139 7.81556 5.50816 7.67356 5.55341 7.53949C5.59866 7.40543 5.67138 7.28223 5.76694 7.17775C5.86251 7.07327 5.97883 6.98979 6.1085 6.93263C6.23817 6.87547 6.37834 6.84589 6.52009 6.84575H8.05167C8.29943 6.84332 8.53962 6.93088 8.72748 7.09211C8.91534 7.25334 9.03804 7.47724 9.07272 7.72208C9.13736 8.21123 9.25725 8.69151 9.43008 9.15376C9.49877 9.33613 9.51364 9.53431 9.47292 9.72485C9.4322 9.91538 9.33761 10.0903 9.20035 10.2288L8.55198 10.8759C9.27874 12.1514 10.337 13.2075 11.6151 13.9328L12.2635 13.2858C12.4023 13.1488 12.5776 13.0544 12.7685 13.0137C12.9594 12.9731 13.158 12.9879 13.3407 13.0565C13.8039 13.229 14.2851 13.3486 14.7753 13.4131C15.0233 13.4481 15.2498 13.5727 15.4117 13.7634C15.5736 13.9541 15.6596 14.1975 15.6534 14.4474Z" stroke="#B11413" stroke-linecap="round" stroke-linejoin="round"/>
</svg>


<svg id="arr-l2"  viewBox="0 0 8 14" fill="none" xmlns="http://www.w3.org/2000/svg">
<path d="M7 1L1 7L7 13" stroke="currentColor" stroke-width="2" stroke-linecap="round" stroke-linejoin="round"/>
</svg>


<svg id="arr-r2"  viewBox="0 0 8 14" fill="none" xmlns="http://www.w3.org/2000/svg">
<path d="M1 13L7 7L1 1" stroke="currentColor" stroke-width="2" stroke-linecap="round" stroke-linejoin="round"/>
</svg>

<svg id="zoom-in" width="40" height="40" viewBox="0 0 40 40" fill="none" xmlns="http://www.w3.org/2000/svg">
<path d="M18.3333 31.6667C25.6971 31.6667 31.6667 25.6971 31.6667 18.3333C31.6667 10.9695 25.6971 5 18.3333 5C10.9695 5 5 10.9695 5 18.3333C5 25.6971 10.9695 31.6667 18.3333 31.6667Z" stroke="currentColor" stroke-width="3" stroke-linecap="round" stroke-linejoin="round"/>
<path d="M35 35L27.75 27.75" stroke="currentColor" stroke-width="3" stroke-linecap="round" stroke-linejoin="round"/>
<path d="M18.333 13.3335V23.3335" stroke="currentColor" stroke-width="3" stroke-linecap="round" stroke-linejoin="round"/>
<path d="M13.333 18.3335H23.333" stroke="currentColor" stroke-width="3" stroke-linecap="round" stroke-linejoin="round"/>
</svg>



</svg>