<svg width="32" height="32" viewBox="0 0 32 32" fill="none" xmlns="http://www.w3.org/2000/svg">
<path fill-rule="evenodd" clip-rule="evenodd" d="M23.3927 2.24157C18.5239 1.19226 13.4748 1.19226 8.60596 2.24157L8.08134 2.35348C6.7118 2.64869 5.45395 3.30417 4.44752 4.24711C3.44109 5.19004 2.72549 6.38351 2.38021 7.69494C1.14605 12.3837 1.14605 17.2954 2.38021 21.9841C2.70949 23.2348 3.37591 24.3793 4.3119 25.3017C5.2479 26.224 6.42019 26.8914 7.70993 27.236L8.42954 31.3779C8.45251 31.5094 8.51163 31.6326 8.60075 31.7346C8.68987 31.8366 8.80572 31.9137 8.93624 31.9579C9.06677 32.0021 9.20719 32.0117 9.34289 31.9858C9.47859 31.9599 9.6046 31.8994 9.70781 31.8106L13.9341 28.1656C17.1067 28.3522 20.2908 28.1076 23.3927 27.439L23.9188 27.3271C25.2884 27.0318 26.5462 26.3764 27.5527 25.4334C28.5591 24.4905 29.2747 23.297 29.62 21.9856C30.854 17.2968 30.854 12.3852 29.62 7.69643C29.2746 6.38481 28.5587 5.19121 27.552 4.24826C26.5453 3.30531 25.2871 2.64994 23.9173 2.35497L23.3927 2.24157ZM9.91208 7.57409C9.62447 7.53372 9.33119 7.58954 9.08105 7.73224H9.05939C8.47906 8.06049 7.95599 8.47378 7.5103 8.96018C7.13889 9.37347 6.93771 9.79124 6.8851 10.1941C6.85415 10.4328 6.87581 10.6745 6.94855 10.9028L6.9764 10.9177C7.39424 12.1009 7.93897 13.2393 8.60441 14.3106C9.46245 15.8153 10.5183 17.2069 11.7459 18.451L11.7831 18.5017L11.8419 18.5435L11.8775 18.5838L11.9208 18.6196C13.2157 19.8067 14.6624 20.8295 16.226 21.6633C18.0134 22.6018 19.0983 23.0449 19.7498 23.2299V23.2389C19.9401 23.2956 20.1134 23.321 20.2883 23.321C20.8432 23.2814 21.3684 23.064 21.7801 22.7033C22.2831 22.2736 22.7087 21.7678 23.0398 21.2053V21.1948C23.3509 20.6278 23.2457 20.0937 22.7969 19.7311C21.8954 18.9717 20.9207 18.2973 19.886 17.7169C19.1927 17.3543 18.4885 17.5737 18.2038 17.9407L17.5956 18.6807C17.283 19.0478 16.7166 18.9971 16.7166 18.9971L16.7011 19.006C12.4748 17.9661 11.3466 13.8406 11.3466 13.8406C11.3466 13.8406 11.294 13.2796 11.6856 12.9931L12.4469 12.4023C12.8122 12.1158 13.066 11.4384 12.6744 10.77C12.0765 9.77149 11.3783 8.83198 10.5899 7.965C10.418 7.76095 10.1768 7.62199 9.90899 7.57259L9.91208 7.57409ZM17.0524 5.78067C16.8472 5.78067 16.6504 5.85926 16.5053 5.99917C16.3602 6.13907 16.2787 6.32883 16.2787 6.52668C16.2787 6.72454 16.3602 6.91429 16.5053 7.05419C16.6504 7.1941 16.8472 7.2727 17.0524 7.2727C19.0101 7.2727 20.635 7.8889 21.921 9.07059C22.5818 9.71664 23.0971 10.482 23.4345 11.3206C23.7734 12.1606 23.9281 13.0573 23.8879 13.9555C23.8836 14.0535 23.8994 14.1513 23.9344 14.2434C23.9693 14.3354 24.0227 14.42 24.0915 14.4922C24.2306 14.638 24.4239 14.7245 24.6292 14.7328C24.8344 14.7411 25.0346 14.6705 25.1858 14.5365C25.337 14.4025 25.4268 14.216 25.4354 14.0182C25.4834 12.9133 25.2932 11.8108 24.8768 10.7805C24.4585 9.74519 23.8244 8.80369 23.0135 8.01423L22.9981 7.99931C21.4025 6.52966 19.383 5.78067 17.0524 5.78067ZM16.9998 8.23356C16.7946 8.23356 16.5978 8.31216 16.4527 8.45206C16.3076 8.59197 16.226 8.78172 16.226 8.97958C16.226 9.17743 16.3076 9.36718 16.4527 9.50709C16.5978 9.64699 16.7946 9.72559 16.9998 9.72559H17.0261C18.4375 9.82257 19.465 10.2761 20.1846 11.0207C20.9228 11.7876 21.3051 12.741 21.2756 13.9197C21.2709 14.1175 21.3479 14.3091 21.4897 14.4522C21.6315 14.5953 21.8264 14.6783 22.0316 14.6829C22.2368 14.6874 22.4355 14.6132 22.584 14.4765C22.7324 14.3398 22.8185 14.1519 22.8232 13.954C22.8603 12.4068 22.3435 11.0714 21.319 10.0061V10.0031C20.2713 8.91989 18.8336 8.34696 17.1035 8.23505L17.0772 8.23207L16.9998 8.23356ZM16.9704 10.7327C16.8668 10.7239 16.7625 10.7353 16.6636 10.7662C16.5648 10.7971 16.4733 10.847 16.3949 10.9127C16.3164 10.9784 16.2525 11.0587 16.2069 11.1488C16.1613 11.2389 16.1351 11.3369 16.1297 11.437C16.1243 11.5371 16.1398 11.6372 16.1754 11.7314C16.211 11.8255 16.266 11.9118 16.3369 11.9851C16.4079 12.0583 16.4934 12.117 16.5884 12.1577C16.6834 12.1983 16.786 12.2201 16.8899 12.2218C17.5368 12.2546 17.95 12.4426 18.21 12.6947C18.4715 12.9484 18.6665 13.3557 18.7021 13.9928C18.704 14.0929 18.7268 14.1916 18.7692 14.2831C18.8115 14.3745 18.8725 14.4568 18.9485 14.525C19.0246 14.5932 19.114 14.646 19.2117 14.6801C19.3093 14.7143 19.4131 14.7292 19.5168 14.7239C19.6205 14.7186 19.722 14.6932 19.8153 14.6492C19.9087 14.6053 19.9918 14.5437 20.0599 14.4681C20.128 14.3925 20.1797 14.3044 20.2117 14.2092C20.2438 14.114 20.2556 14.0135 20.2465 13.9137C20.197 13.0185 19.9061 12.2277 19.3103 11.6458C18.7114 11.0639 17.8958 10.7805 16.9704 10.7327Z" fill="#2E2E2E" fill-opacity="0.7"/>
</svg>
